<svg xmlns="http://www.w3.org/2000/svg" xmlns:xlink="http://www.w3.org/1999/xlink" width="500" zoomAndPan="magnify" viewBox="0 0 375 374.999991" height="500" preserveAspectRatio="xMidYMid meet" version="1.0"><defs><clipPath id="22a3f44a04"><path d="M 18.566406 18.566406 L 356.066406 18.566406 L 356.066406 356.066406 L 18.566406 356.066406 Z M 18.566406 18.566406 " clip-rule="nonzero"/></clipPath></defs><g clip-path="url(#22a3f44a04)"><path fill="#1625aa" d="M 187.5 18.566406 C 94.199219 18.566406 18.566406 94.199219 18.566406 187.5 C 18.566406 280.800781 94.199219 356.429688 187.5 356.429688 C 280.800781 356.429688 356.429688 280.800781 356.429688 187.5 C 356.429688 94.199219 280.800781 18.566406 187.5 18.566406 Z M 255.070312 204.390625 L 160.707031 204.390625 L 187.5 231.183594 C 194.085938 237.773438 194.085938 248.484375 187.5 255.070312 C 180.910156 261.660156 170.199219 261.660156 163.613281 255.070312 L 107.980469 199.441406 C 101.378906 192.835938 101.378906 182.144531 107.980469 175.554688 L 163.613281 119.925781 C 170.199219 113.335938 180.910156 113.335938 187.5 119.925781 C 194.085938 126.515625 194.085938 137.222656 187.5 143.8125 L 160.707031 170.605469 L 255.070312 170.605469 C 264.394531 170.605469 271.964844 178.171875 271.964844 187.5 C 271.964844 196.824219 264.394531 204.390625 255.070312 204.390625 Z M 255.070312 204.390625 " fill-opacity="1" fill-rule="nonzero"/></g></svg>